<?xml version="1.0" encoding="utf-8"?>
<!-- Generator: Adobe Illustrator 26.4.1, SVG Export Plug-In . SVG Version: 6.00 Build 0)  -->
<svg version="1.1" id="Capa_1" xmlns="http://www.w3.org/2000/svg" xmlns:xlink="http://www.w3.org/1999/xlink" x="0px" y="0px"
	 viewBox="0 0 2190.5 1303.3" style="enable-background:new 0 0 2190.5 1303.3;" xml:space="preserve">
<style type="text/css">
	.st0{fill:#9E0142;}
	.st1{font-family:'ArialMT';}
	.st2{font-size:19px;}
	.st3{fill:#A90E45;}
	.st4{fill:#B51A47;}
	.st5{fill:#BF2749;}
	.st6{fill:#CA324A;}
	.st7{fill:#D33E4B;}
	.st8{fill:#DB494A;}
	.st9{fill:#E2534A;}
	.st10{fill:#E85E49;}
	.st11{fill:#EE6949;}
	.st12{fill:#F2754B;}
	.st13{fill:#F5814E;}
	.st14{fill:#F88E53;}
	.st15{fill:#FA9A59;}
	.st16{fill:#FBA760;}
	.st17{fill:#FCB368;}
	.st18{fill:#FDBE70;}
	.st19{fill:#FDC878;}
	.st20{fill:#FED281;}
	.st21{fill:#FEDB8B;}
	.st22{fill:#FEE395;}
	.st23{fill:#FEEA9E;}
	.st24{fill:#FEF0A6;}
	.st25{fill:#FDF5AD;}
	.st26{fill:#FBF8B0;}
	.st27{fill:#F8FAAF;}
	.st28{fill:#F3F9AC;}
	.st29{fill:#EEF8A8;}
	.st30{fill:#E7F5A3;}
	.st31{fill:#DFF2A0;}
	.st32{fill:#D5EE9F;}
	.st33{fill:#CAEA9F;}
	.st34{fill:#BEE5A0;}
	.st35{fill:#B1E0A1;}
	.st36{fill:#A4DAA3;}
	.st37{fill:#96D5A4;}
	.st38{fill:#89CFA5;}
	.st39{fill:#7BC8A6;}
	.st40{fill:#6EC0A8;}
	.st41{fill:#61B7AB;}
	.st42{fill:#56ADAE;}
	.st43{fill:#4DA2B1;}
	.st44{fill:#4696B3;}
	.st45{fill:#428BB5;}
	.st46{fill:#437FB4;}
	.st47{fill:#4673B1;}
	.st48{fill:#4D67AD;}
	.st49{fill:#555BA8;}
	.st50{fill:#5E4FA2;}
	.st51{fill:none;stroke:#000000;}
	.st52{font-family:'Helvetica';}
	.st53{font-size:18.4873px;}
	.st54{fill:#7B7B7B;}
	.st55{font-family:'Arial-BoldMT';}
	.st56{font-size:22.1848px;}
	.st57{font-family:'MyriadPro-Regular';}
	.st58{font-size:35px;}
</style>
<rect x="1563.7" y="253" class="st0" width="21.6" height="21.6"/>
<text transform="matrix(1 0 0 1 1592.4788 270.9329)" class="st1 st2">Avatar</text>
<rect x="1563.7" y="282.4" class="st3" width="21.6" height="21.6"/>
<text transform="matrix(1 0 0 1 1592.4788 300.406)" class="st1 st2">Avengers: Age of Ultron</text>
<rect x="1563.7" y="311.9" class="st4" width="21.6" height="21.6"/>
<text transform="matrix(1 0 0 1 1592.4788 329.8792)" class="st1 st2">Avengers: Endgame</text>
<rect x="1563.7" y="341.4" class="st5" width="21.6" height="21.6"/>
<text transform="matrix(1 0 0 1 1592.4788 359.3518)" class="st1 st2">Avengers: Infinity War</text>
<rect x="1563.7" y="370.9" class="st6" width="21.6" height="21.6"/>
<text transform="matrix(1 0 0 1 1592.4788 388.825)" class="st1 st2">Bambi</text>
<rect x="1563.7" y="400.3" class="st7" width="21.6" height="21.6"/>
<text transform="matrix(1 0 0 1 1592.4788 418.2976)" class="st1 st2">Ben-Hur</text>
<rect x="1563.7" y="429.8" class="st8" width="21.6" height="21.6"/>
<text transform="matrix(1 0 0 1 1592.4788 447.7708)" class="st1 st2">Black Panther</text>
<rect x="1563.7" y="459.3" class="st9" width="21.6" height="21.6"/>
<text transform="matrix(1 0 0 1 1592.4788 477.2439)" class="st1 st2">Cinderella</text>
<rect x="1563.7" y="488.7" class="st10" width="21.6" height="21.6"/>
<text transform="matrix(1 0 0 1 1592.4788 506.7166)" class="st1 st2">Doctor Zhivago</text>
<rect x="1563.7" y="518.2" class="st11" width="21.6" height="21.6"/>
<text transform="matrix(1 0 0 1 1592.4788 536.1898)" class="st1 st2">E.T. the Extra-Terrestrial</text>
<rect x="1563.7" y="547.7" class="st12" width="21.6" height="21.6"/>
<text transform="matrix(1 0 0 1 1592.4788 565.6629)" class="st1 st2">Finding Nemo</text>
<rect x="1563.7" y="577.2" class="st13" width="21.6" height="21.6"/>
<text transform="matrix(1 0 0 1 1592.4788 595.136)" class="st1 st2">Forrest Gump</text>
<rect x="1563.7" y="606.6" class="st14" width="21.6" height="21.6"/>
<text transform="matrix(1 0 0 1 1592.4788 624.6087)" class="st1 st2">Frozen</text>
<rect x="1563.7" y="636.1" class="st15" width="21.6" height="21.6"/>
<text transform="matrix(1 0 0 1 1592.4788 654.0818)" class="st1 st2">Frozen II</text>
<rect x="1563.7" y="665.6" class="st16" width="21.6" height="21.6"/>
<text transform="matrix(1 0 0 1 1592.4788 683.5545)" class="st1 st2">Furious 7</text>
<rect x="1563.7" y="695.1" class="st17" width="21.6" height="21.6"/>
<text transform="matrix(1 0 0 1 1592.4788 713.0272)" class="st1 st2">Goldfinger</text>
<rect x="1563.7" y="724.5" class="st18" width="21.6" height="21.6"/>
<text transform="matrix(1 0 0 1 1592.4788 742.5008)" class="st1 st2">Gone with the Wind</text>
<rect x="1563.7" y="754" class="st19" width="21.6" height="21.6"/>
<text transform="matrix(1 0 0 1 1592.4788 771.9734)" class="st1 st2">Grease</text>
<rect x="1563.7" y="783.5" class="st20" width="21.6" height="21.6"/>
<text transform="matrix(1 0 0 1 1592.4788 801.4471)" class="st1 st2">Harry Potter and the</text>
<text transform="matrix(1 0 0 1 1592.4788 818.699)" class="st1 st2">Chamber of Secrets</text>
<rect x="1563.7" y="835.4" class="st21" width="21.6" height="21.6"/>
<text transform="matrix(1 0 0 1 1592.4788 853.3475)" class="st1 st2">Harry Potter and the</text>
<text transform="matrix(1 0 0 1 1592.4788 870.6004)" class="st1 st2">Deathly Hallows: Part 2</text>
<rect x="1563.7" y="887.3" class="st22" width="21.6" height="21.6"/>
<text transform="matrix(1 0 0 1 1592.4788 905.2488)" class="st1 st2">Harry Potter and the</text>
<text transform="matrix(1 0 0 1 1592.4788 922.5018)" class="st1 st2">Sorcerer&apos;s Stone</text>
<rect x="1563.7" y="939.2" class="st23" width="21.6" height="21.6"/>
<text transform="matrix(1 0 0 1 1592.4788 957.1502)" class="st1 st2">Independence Day</text>
<rect x="1563.7" y="968.7" class="st24" width="21.6" height="21.6"/>
<text transform="matrix(1 0 0 1 1592.4788 986.6229)" class="st1 st2">Iron Man 3</text>
<rect x="1563.7" y="998.1" class="st25" width="21.6" height="21.6"/>
<text transform="matrix(1 0 0 1 1592.4788 1016.0955)" class="st1 st2">Jaws</text>
<rect x="1564.4" y="1034.3" class="st26" width="21.6" height="21.6"/>
<text transform="matrix(1 0 0 1 1593.1975 1052.282)" class="st1 st2">Jurassic Park</text>
<rect x="1564.4" y="1063.8" class="st27" width="21.6" height="21.6"/>
<text transform="matrix(1 0 0 1 1593.1975 1081.7546)" class="st1 st2">Jurassic World</text>
<rect x="1564.4" y="1093.3" class="st28" width="21.6" height="21.6"/>
<text transform="matrix(1 0 0 1 1593.1975 1111.2283)" class="st1 st2">Jurassic World: Fallen</text>
<text transform="matrix(1 0 0 1 1593.1975 1128.4802)" class="st1 st2">Kingdom</text>
<rect x="1824.8" y="248.4" class="st29" width="21.6" height="21.6"/>
<text transform="matrix(1 0 0 1 1853.5266 266.3611)" class="st1 st2">One Hundred and One</text>
<text transform="matrix(1 0 0 1 1853.5266 283.6136)" class="st1 st2">Dalmatians</text>
<rect x="1824.8" y="300.3" class="st30" width="21.6" height="21.6"/>
<text transform="matrix(1 0 0 1 1853.5266 318.262)" class="st1 st2">Pirates of the Caribbean:</text>
<text transform="matrix(1 0 0 1 1853.5266 335.5144)" class="st1 st2">Dead Man&apos;s Chest</text>
<rect x="1824.8" y="352.2" class="st31" width="21.6" height="21.6"/>
<text transform="matrix(1 0 0 1 1853.5266 370.1634)" class="st1 st2">Shrek 2</text>
<rect x="1824.8" y="381.7" class="st32" width="21.6" height="21.6"/>
<text transform="matrix(1 0 0 1 1853.5266 399.636)" class="st1 st2">Snow White and the Seven</text>
<text transform="matrix(1 0 0 1 1853.5266 416.8885)" class="st1 st2">Dwarfs</text>
<rect x="1824.8" y="433.6" class="st33" width="21.6" height="21.6"/>
<text transform="matrix(1 0 0 1 1853.5266 451.5374)" class="st1 st2">Star Wars: Episode I - The</text>
<text transform="matrix(1 0 0 1 1853.5266 468.7898)" class="st1 st2">Phantom Menace</text>
<rect x="1824.8" y="485.5" class="st34" width="21.6" height="21.6"/>
<text transform="matrix(1 0 0 1 1853.5266 503.4388)" class="st1 st2">Star Wars: Episode IV - A</text>
<text transform="matrix(1 0 0 1 1853.5266 520.6912)" class="st1 st2">New Hope</text>
<rect x="1824.8" y="537.4" class="st35" width="21.6" height="21.6"/>
<text transform="matrix(1 0 0 1 1853.5266 555.3397)" class="st1 st2">Star Wars: Episode V - The</text>
<text transform="matrix(1 0 0 1 1853.5266 572.5921)" class="st1 st2">Empire Strikes Back</text>
<rect x="1824.8" y="589.3" class="st36" width="21.6" height="21.6"/>
<text transform="matrix(1 0 0 1 1853.5266 607.241)" class="st1 st2">Star Wars: Episode VI -</text>
<text transform="matrix(1 0 0 1 1853.5266 624.4935)" class="st1 st2">Return of the Jedi</text>
<rect x="1824.8" y="641.2" class="st37" width="21.6" height="21.6"/>
<text transform="matrix(1 0 0 1 1853.5266 659.1424)" class="st1 st2">Star Wars: Episode VII -</text>
<text transform="matrix(1 0 0 1 1853.5266 676.3943)" class="st1 st2">The Force Awakens</text>
<rect x="1824.8" y="693.1" class="st38" width="21.6" height="21.6"/>
<text transform="matrix(1 0 0 1 1853.5266 711.0428)" class="st1 st2">Star Wars: Episode VIII -</text>
<text transform="matrix(1 0 0 1 1853.5266 728.2957)" class="st1 st2">The Last Jedi</text>
<rect x="1824.8" y="745" class="st39" width="21.6" height="21.6"/>
<text transform="matrix(1 0 0 1 1853.5266 762.9451)" class="st1 st2">The Avengers</text>
<rect x="1824.8" y="774.4" class="st40" width="21.6" height="21.6"/>
<text transform="matrix(1 0 0 1 1853.5266 792.4178)" class="st1 st2">The Exorcist</text>
<rect x="1824.8" y="803.9" class="st41" width="21.6" height="21.6"/>
<text transform="matrix(1 0 0 1 1853.5266 821.8904)" class="st1 st2">The Godfather</text>
<rect x="1824.8" y="833.4" class="st42" width="21.6" height="21.6"/>
<text transform="matrix(1 0 0 1 1853.5266 851.3631)" class="st1 st2">The Jungle Book</text>
<rect x="1824.8" y="862.9" class="st43" width="21.6" height="21.6"/>
<text transform="matrix(1 0 0 1 1853.5266 880.8358)" class="st1 st2">The Lion King</text>
<rect x="1824.8" y="892.3" class="st44" width="21.6" height="21.6"/>
<text transform="matrix(1 0 0 1 1853.5266 910.3094)" class="st1 st2">The Lord of the Rings: The</text>
<text transform="matrix(1 0 0 1 1853.5266 927.5623)" class="st1 st2">Fellowship of the Ring</text>
<rect x="1824.8" y="944.2" class="st45" width="21.6" height="21.6"/>
<text transform="matrix(1 0 0 1 1853.5266 962.2108)" class="st1 st2">The Lord of the Rings: The</text>
<text transform="matrix(1 0 0 1 1853.5266 979.4627)" class="st1 st2">Return of the King</text>
<rect x="1824.8" y="996.1" class="st46" width="21.6" height="21.6"/>
<text transform="matrix(1 0 0 1 1853.5266 1014.1111)" class="st1 st2">The Lord of the Rings: The</text>
<text transform="matrix(1 0 0 1 1853.5266 1031.364)" class="st1 st2">Two Towers</text>
<rect x="1824.8" y="1048" class="st47" width="21.6" height="21.6"/>
<text transform="matrix(1 0 0 1 1853.5266 1066.0125)" class="st1 st2">The Sound of Music</text>
<rect x="1824.8" y="1077.5" class="st48" width="21.6" height="21.6"/>
<text transform="matrix(1 0 0 1 1853.5266 1095.4861)" class="st1 st2">The Ten Commandments</text>
<rect x="1824.8" y="1107" class="st49" width="21.6" height="21.6"/>
<text transform="matrix(1 0 0 1 1853.5266 1124.9587)" class="st1 st2">Thunderball</text>
<rect x="1824.8" y="1136.5" class="st50" width="21.6" height="21.6"/>
<text transform="matrix(1 0 0 1 1853.5266 1154.4314)" class="st1 st2">Titanic</text>
<g id="viz_00000065776480416405488880000015027886420503997082_">
	<g>
		<ellipse class="st18" cx="174" cy="1099.3" rx="13.9" ry="13.9"/>
	</g>
	<g>
		<ellipse class="st0" cx="928" cy="311.7" rx="13.9" ry="13.9"/>
	</g>
	<g>
		<ellipse class="st50" cx="807.9" cy="507.7" rx="13.9" ry="13.9"/>
	</g>
	<g>
		<ellipse class="st34" cx="196.2" cy="975.4" rx="13.9" ry="13.9"/>
	</g>
	<g>
		<ellipse class="st4" cx="1312.4" cy="308" rx="13.9" ry="13.9"/>
	</g>
	<g>
		<ellipse class="st47" cx="186.9" cy="1138.1" rx="13.9" ry="13.9"/>
	</g>
	<g>
		<ellipse class="st11" cx="194.3" cy="969.8" rx="13.9" ry="13.9"/>
	</g>
	<g>
		<ellipse class="st48" cx="203.6" cy="1191.7" rx="13.9" ry="13.9"/>
	</g>
	<g>
		<ellipse class="st10" cx="196.2" cy="1151" rx="13.9" ry="13.9"/>
	</g>
	<g>
		<ellipse class="st37" cx="996.4" cy="550.2" rx="13.9" ry="13.9"/>
	</g>
	<g>
		<ellipse class="st32" cx="166.6" cy="1093.7" rx="13.9" ry="13.9"/>
	</g>
	<g>
		<ellipse class="st26" cx="364.4" cy="892.2" rx="13.9" ry="13.9"/>
	</g>
	<g>
		<ellipse class="st25" cx="190.6" cy="1077.1" rx="13.9" ry="13.9"/>
	</g>
	<g>
		<ellipse class="st5" cx="1319.7" cy="555.7" rx="13.9" ry="13.9"/>
	</g>
	<g>
		<ellipse class="st40" cx="199.9" cy="1086.3" rx="13.9" ry="13.9"/>
	</g>
	<g>
		<ellipse class="st29" cx="174" cy="1132.5" rx="13.9" ry="13.9"/>
	</g>
	<g>
		<ellipse class="st43" cx="307.1" cy="912.5" rx="13.9" ry="13.9"/>
	</g>
	<g>
		<ellipse class="st27" cx="647.1" cy="681.4" rx="13.9" ry="13.9"/>
	</g>
	<g>
		<ellipse class="st42" cx="174" cy="1108.5" rx="13.9" ry="13.9"/>
	</g>
	<g>
		<ellipse class="st33" cx="532.5" cy="894" rx="13.9" ry="13.9"/>
	</g>
	<g>
		<ellipse class="st7" cx="211" cy="1184.3" rx="13.9" ry="13.9"/>
	</g>
	<g>
		<ellipse class="st39" cx="872.5" cy="731.4" rx="13.9" ry="13.9"/>
	</g>
	<g>
		<ellipse class="st45" cx="466" cy="855.2" rx="13.9" ry="13.9"/>
	</g>
	<g>
		<ellipse class="st35" cx="235" cy="1051.2" rx="13.9" ry="13.9"/>
	</g>
	<g>
		<ellipse class="st23" cx="403.2" cy="962.4" rx="13.9" ry="13.9"/>
	</g>
	<g>
		<ellipse class="st43" cx="985.3" cy="685.1" rx="13.9" ry="13.9"/>
	</g>
	<g>
		<ellipse class="st16" cx="776.4" cy="731.4" rx="13.9" ry="13.9"/>
	</g>
	<g>
		<ellipse class="st22" cx="565.8" cy="908.8" rx="13.9" ry="13.9"/>
	</g>
	<g>
		<ellipse class="st9" cx="170.3" cy="1145.5" rx="13.9" ry="13.9"/>
	</g>
	<g>
		<ellipse class="st21" cx="726.6" cy="788.7" rx="13.9" ry="13.9"/>
	</g>
	<g>
		<ellipse class="st49" cx="194.3" cy="1186.1" rx="13.9" ry="13.9"/>
	</g>
	<g>
		<ellipse class="st6" cx="164.8" cy="1143.6" rx="13.9" ry="13.9"/>
	</g>
	<g>
		<ellipse class="st30" cx="889.2" cy="881.1" rx="13.9" ry="13.9"/>
	</g>
	<g>
		<ellipse class="st3" cx="1341.9" cy="768.3" rx="13.9" ry="13.9"/>
	</g>
	<g>
		<ellipse class="st17" cx="172.2" cy="1191.7" rx="13.9" ry="13.9"/>
	</g>
	<g>
		<ellipse class="st19" cx="181.4" cy="1101.1" rx="13.9" ry="13.9"/>
	</g>
	<g>
		<ellipse class="st13" cx="338.5" cy="1008.7" rx="13.9" ry="13.9"/>
	</g>
	<g>
		<ellipse class="st46" cx="466" cy="918.1" rx="13.9" ry="13.9"/>
	</g>
	<g>
		<ellipse class="st44" cx="462.3" cy="938.4" rx="13.9" ry="13.9"/>
	</g>
	<g>
		<ellipse class="st14" cx="647.1" cy="809" rx="13.9" ry="13.9"/>
	</g>
	<g>
		<ellipse class="st15" cx="647.1" cy="753.5" rx="13.9" ry="13.9"/>
	</g>
	<g>
		<ellipse class="st12" cx="466" cy="921.8" rx="13.9" ry="13.9"/>
	</g>
	<g>
		<ellipse class="st20" cx="484.5" cy="942.1" rx="13.9" ry="13.9"/>
	</g>
	<g>
		<ellipse class="st31" cx="647.1" cy="925.5" rx="13.9" ry="13.9"/>
	</g>
	<g>
		<ellipse class="st8" cx="807.9" cy="786.8" rx="13.9" ry="13.9"/>
	</g>
	<g>
		<ellipse class="st38" cx="996.4" cy="792.4" rx="13.9" ry="13.9"/>
	</g>
	<g>
		<ellipse class="st36" cx="266.4" cy="1075.2" rx="13.9" ry="13.9"/>
	</g>
	<g>
		<ellipse class="st24" cx="807.9" cy="831.2" rx="13.9" ry="13.9"/>
	</g>
	<g>
		<ellipse class="st28" cx="737.6" cy="799.8" rx="13.9" ry="13.9"/>
	</g>
	<g>
		<ellipse class="st41" cx="179.6" cy="1151" rx="13.9" ry="13.9"/>
	</g>
</g>
<g id="axis_00000102515593076340462080000004158129063388747701_">
	<g transform="translate(0,500)">
		<path class="st51" d="M126,708.8v-11.1h1293.6v11.1"/>
		<g transform="translate(0,0)">
			<line class="st51" x1="126" y1="697.7" x2="126" y2="708.8"/>
			<text transform="matrix(0.9996 0 0 1 120.893 727.4366)" class="st52 st53">0</text>
		</g>
		<g transform="translate(88,0)">
			<line class="st51" x1="200.7" y1="697.7" x2="200.7" y2="708.8"/>
			<text transform="matrix(0.9996 0 0 1 190.3745 727.4366)" class="st52 st53">50</text>
		</g>
		<g transform="translate(175,0)">
			<line class="st51" x1="274.4" y1="697.7" x2="274.4" y2="708.8"/>
			<text transform="matrix(0.9996 0 0 1 259.0083 727.4366)" class="st52 st53">100</text>
		</g>
		<g transform="translate(263,0)">
			<line class="st51" x1="349" y1="697.7" x2="349" y2="708.8"/>
			<text transform="matrix(0.9996 0 0 1 333.6308 727.4366)" class="st52 st53">150</text>
		</g>
		<g transform="translate(350,0)">
			<line class="st51" x1="422.8" y1="697.7" x2="422.8" y2="708.8"/>
			<text transform="matrix(0.9996 0 0 1 407.4023 727.4366)" class="st52 st53">200</text>
		</g>
		<g transform="translate(438,0)">
			<line class="st51" x1="497.4" y1="697.7" x2="497.4" y2="708.8"/>
			<text transform="matrix(0.9996 0 0 1 482.0234 727.4366)" class="st52 st53">250</text>
		</g>
		<g transform="translate(525,0)">
			<line class="st51" x1="571.2" y1="697.7" x2="571.2" y2="708.8"/>
			<text transform="matrix(0.9996 0 0 1 555.7969 727.4366)" class="st52 st53">300</text>
		</g>
		<g transform="translate(613,0)">
			<line class="st51" x1="645.8" y1="697.7" x2="645.8" y2="708.8"/>
			<text transform="matrix(0.9996 0 0 1 630.416 727.4366)" class="st52 st53">350</text>
		</g>
		<g transform="translate(700,0)">
			<line class="st51" x1="719.6" y1="697.7" x2="719.6" y2="708.8"/>
			<text transform="matrix(0.9996 0 0 1 704.1914 727.4366)" class="st52 st53">400</text>
		</g>
		<text transform="matrix(0.9996 0 0 1 1282.8828 688.4298)" class="st54 st55 st56">Budget (mln)</text>
	</g>
	<g>
		<path class="st51" d="M114.9,1197.7H126V273.3h-11.1"/>
		<g transform="translate(0,500)">
			<line class="st51" x1="126" y1="697.7" x2="114.9" y2="697.7"/>
			<text transform="matrix(0.9996 0 0 1 99.1216 703.589)" class="st52 st53">0</text>
		</g>
		<g transform="translate(0,464)">
			<line class="st51" x1="126" y1="667.1" x2="114.9" y2="667.1"/>
			<text transform="matrix(0.9996 0 0 1 78.5669 673.0343)" class="st52 st53">200</text>
		</g>
		<g transform="translate(0,429)">
			<line class="st51" x1="126" y1="637.4" x2="114.9" y2="637.4"/>
			<text transform="matrix(0.9996 0 0 1 78.5669 643.3292)" class="st52 st53">400</text>
		</g>
		<g transform="translate(0,393)">
			<line class="st51" x1="126" y1="606.9" x2="114.9" y2="606.9"/>
			<text transform="matrix(0.9996 0 0 1 78.5669 612.7745)" class="st52 st53">600</text>
		</g>
		<g transform="translate(0,357)">
			<line class="st51" x1="126" y1="576.3" x2="114.9" y2="576.3"/>
			<text transform="matrix(0.9996 0 0 1 78.5669 582.2208)" class="st52 st53">800</text>
		</g>
		<g transform="translate(0,321)">
			<line class="st51" x1="126" y1="545.8" x2="114.9" y2="545.8"/>
			<text transform="matrix(0.9996 0 0 1 63.1557 551.6661)" class="st52 st53">1,000</text>
		</g>
		<g transform="translate(0,286)">
			<line class="st51" x1="126" y1="516" x2="114.9" y2="516"/>
			<text transform="matrix(0.9996 0 0 1 63.1557 521.9601)" class="st52 st53">1,200</text>
		</g>
		<g transform="translate(0,250)">
			<line class="st51" x1="126" y1="485.5" x2="114.9" y2="485.5"/>
			<text transform="matrix(0.9996 0 0 1 63.1557 491.4064)" class="st52 st53">1,400</text>
		</g>
		<g transform="translate(0,214)">
			<line class="st51" x1="126" y1="454.9" x2="114.9" y2="454.9"/>
			<text transform="matrix(0.9996 0 0 1 63.1557 460.8517)" class="st52 st53">1,600</text>
		</g>
		<g transform="translate(0,179)">
			<line class="st51" x1="126" y1="425.2" x2="114.9" y2="425.2"/>
			<text transform="matrix(0.9996 0 0 1 63.1557 431.1466)" class="st52 st53">1,800</text>
		</g>
		<g transform="translate(0,143)">
			<line class="st51" x1="126" y1="394.7" x2="114.9" y2="394.7"/>
			<text transform="matrix(0.9996 0 0 1 63.1557 400.5919)" class="st52 st53">2,000</text>
		</g>
		<g transform="translate(0,107)">
			<line class="st51" x1="126" y1="364.1" x2="114.9" y2="364.1"/>
			<text transform="matrix(0.9996 0 0 1 63.1557 370.0372)" class="st52 st53">2,200</text>
		</g>
		<g transform="translate(0,71)">
			<line class="st51" x1="126" y1="333.6" x2="114.9" y2="333.6"/>
			<text transform="matrix(0.9996 0 0 1 63.1557 339.4835)" class="st52 st53">2,400</text>
		</g>
		<g transform="translate(0,36)">
			<line class="st51" x1="126" y1="303.9" x2="114.9" y2="303.9"/>
			<text transform="matrix(0.9996 0 0 1 63.1557 309.7775)" class="st52 st53">2,600</text>
		</g>
		<g transform="translate(0,0)">
			<line class="st51" x1="126" y1="273.3" x2="114.9" y2="273.3"/>
			<text transform="matrix(0.9996 0 0 1 63.1557 279.2238)" class="st52 st53">2,800</text>
		</g>
		<text transform="matrix(0.9996 0 0 1 133.4233 292.34)" class="st54 st55 st56">Real Worldwide Box Office (mln)</text>
	</g>
</g>
<text transform="matrix(1 0 0 1 821.7225 129.299)" class="st57 st58">Highest grossing movies in history</text>
</svg>
